<svg xmlns="http://www.w3.org/2000/svg" viewBox="0 0 468.87 339.91"><defs><style>.\39 b577c12-f283-4dfa-a31d-813d40c8d059{fill:#95989a;}.\35 0940d42-4adf-4ccd-9e5a-b6f530e04377{fill:#34880c;}.d044d0b7-68a9-4127-93d1-4a9e7afa055c{fill:none;stroke:#34880c;stroke-miterlimit:10;stroke-width:12px;}</style></defs><title>appsBT</title><g id="6d9f424e-6658-49d2-9f63-94adfafe782d" data-name="Layer 2"><g id="d4bdea96-17c5-4704-b552-242415d943b5" data-name="appsBT"><path class="9b577c12-f283-4dfa-a31d-813d40c8d059" d="M169.24,59.25l-7.42-4.56a76.85,76.85,0,0,0,13.67-29.58,66.66,66.66,0,0,0,1.09-21.56l9.28-1.33a66.3,66.3,0,0,1-.68,24.53A77.93,77.93,0,0,1,169.24,59.25Z"/><path class="9b577c12-f283-4dfa-a31d-813d40c8d059" d="M157.45,52l-8.32-5.12a75.63,75.63,0,0,0,11.12-26,67.28,67.28,0,0,0,1.5-15.25l9.38-1.35a66.84,66.84,0,0,1-1.27,19.83A76.23,76.23,0,0,1,157.45,52Z"/><path class="9b577c12-f283-4dfa-a31d-813d40c8d059" d="M154.63,20a75,75,0,0,1-10,24.15l-6.8-4.19a77.29,77.29,0,0,0,7.32-17.42A71.06,71.06,0,0,0,147.7,7.69l8.43-1.21A67.42,67.42,0,0,1,154.63,20Z"/><path class="9b577c12-f283-4dfa-a31d-813d40c8d059" d="M200.2,35.34a78.9,78.9,0,0,1-18.72,31.44L174,62.18c6-7,14.15-18.7,17.5-34.38a66.16,66.16,0,0,0,.34-26.45L201.27,0A66.07,66.07,0,0,1,200.2,35.34Z"/><rect class="50940d42-4adf-4ccd-9e5a-b6f530e04377" y="160.91" width="468.87" height="179" rx="12.49" ry="12.49"/><line class="d044d0b7-68a9-4127-93d1-4a9e7afa055c" x1="231.79" y1="186.32" x2="231.79" y2="43.48"/><circle class="50940d42-4adf-4ccd-9e5a-b6f530e04377" cx="231.79" cy="44.11" r="12.63"/><ellipse cx="52.47" cy="226.65" rx="14.93" ry="13.77"/><path d="M32.85,260.8s130.85,9.93,134.49,0S150.56,292,127.21,301.51,32.85,260.8,32.85,260.8Z"/><ellipse cx="119.17" cy="226.64" rx="14.93" ry="13.77"/></g></g></svg>