<svg xmlns="http://www.w3.org/2000/svg" viewBox="0 0 626.78 416.92"><defs><style>.\33 2ea767e-ee6b-42df-b277-133b8a2994f3{fill:#ccc;}.\34 11d14e0-4fb0-4364-a150-865aacfdf738{fill:#f2f2f2;}.\33 b631dbe-3464-49fc-be2d-918d24b05015{fill:#282828;}.dc973577-f496-4f6f-8ee6-70e312ac6f7b{fill:#9b9b9b;}.\34 625175e-3d1d-40aa-b1b5-1d93b580b388{fill:#5b5b5b;}.\36 7a53e30-eeaf-436b-a49c-82ca82c755ef{fill:gray;}.\36 ce59301-d4ed-419f-a880-4bf5cc3dc78d{fill:#4d4d4d;}.a2fd2ca3-afd9-4970-88e8-d5fb10211094{fill:#34880c;}.\31 ae4f7a5-33cd-40a8-bd64-cba334ec3751{fill:#ff931e;}.\31 8f6a926-0d41-431d-961a-d38b1ab7aeea{fill:#43b7ff;}.\34 31b5e16-b225-4fea-85a8-a92d4915ec09,.ab7cb7e1-4d27-48da-821a-75d18a7535bb{font-size:14.66px;}.\34 31b5e16-b225-4fea-85a8-a92d4915ec09,.\36 0a5208b-2837-4093-93cf-0af0ceebeed3,.ab7cb7e1-4d27-48da-821a-75d18a7535bb,.d33d7bc5-3bc9-4904-8472-d9f3aa1e5e5e{fill:#fff;}.\34 31b5e16-b225-4fea-85a8-a92d4915ec09,.\34 3e903cd-e828-49af-8696-911f23a24ac8,.ab7cb7e1-4d27-48da-821a-75d18a7535bb{font-family:Roboto-Medium, Roboto;}.ab7cb7e1-4d27-48da-821a-75d18a7535bb{letter-spacing:-0.01em;}.e1006087-de19-4dcb-80cb-b7fdc5f3d30f{letter-spacing:0em;}.a7f3d554-2f3f-427b-bf27-fe69c10bdb17{letter-spacing:-0.01em;}.\34 3e903cd-e828-49af-8696-911f23a24ac8,.\36 0a5208b-2837-4093-93cf-0af0ceebeed3{font-size:16px;}.\36 0a5208b-2837-4093-93cf-0af0ceebeed3{font-family:Roboto-Bold, Roboto;font-weight:700;}.\39 a3880ac-1dea-4168-883f-8307bea382c2{letter-spacing:0.02em;}</style></defs><title>connectCode_1</title><g id="d3e45f4f-d360-4521-9066-278905dae774" data-name="Layer 2"><g id="e1458c50-539c-43e5-b234-356ae72e5a99" data-name="connectCode"><rect class="32ea767e-ee6b-42df-b277-133b8a2994f3" width="626.78" height="416.92"/><rect class="411d14e0-4fb0-4364-a150-865aacfdf738" y="25.18" width="626.78" height="391.74"/><circle class="3b631dbe-3464-49fc-be2d-918d24b05015" cx="10.31" cy="12.99" r="3.31"/><circle class="dc973577-f496-4f6f-8ee6-70e312ac6f7b" cx="28.99" cy="12.99" r="3.31"/><circle class="4625175e-3d1d-40aa-b1b5-1d93b580b388" cx="20.03" cy="13.03" r="3.31"/><rect class="67a53e30-eeaf-436b-a49c-82ca82c755ef" x="607.2" y="6.13" width="11.19" height="2.8" rx="1.19" ry="1.19"/><rect class="67a53e30-eeaf-436b-a49c-82ca82c755ef" x="607.2" y="10.6" width="11.19" height="2.8" rx="1.19" ry="1.19"/><rect class="67a53e30-eeaf-436b-a49c-82ca82c755ef" x="607.2" y="15.07" width="11.19" height="2.8" rx="1.19" ry="1.19"/><rect class="6ce59301-d4ed-419f-a880-4bf5cc3dc78d" x="11.19" y="67.15" width="604.39" height="33.58"/><rect class="6ce59301-d4ed-419f-a880-4bf5cc3dc78d" x="268.62" y="41.97" width="81.15" height="11.19"/><path class="a2fd2ca3-afd9-4970-88e8-d5fb10211094" d="M393.6,267.45a36.94,36.94,0,0,1-36.94,36.94H108.93A36.94,36.94,0,0,1,72,267.45h0a36.94,36.94,0,0,1,36.94-36.94H356.66a36.94,36.94,0,0,1,36.94,36.94Z"/><path class="1ae4f7a5-33cd-40a8-bd64-cba334ec3751" d="M486.32,278.32a18.83,18.83,0,0,1-18.83,18.83H116.9a18.83,18.83,0,0,1-18.83-18.83h0a18.83,18.83,0,0,1,18.83-18.83H467.49a18.83,18.83,0,0,1,18.83,18.83Z"/><polygon class="1ae4f7a5-33cd-40a8-bd64-cba334ec3751" points="121.62 300.86 118.47 294.25 124.76 294.25 121.62 300.86"/><polygon class="a2fd2ca3-afd9-4970-88e8-d5fb10211094" points="121.62 275.26 112.22 255.14 131.02 255.14 121.62 275.26"/><rect class="18f6a926-0d41-431d-961a-d38b1ab7aeea" x="265.77" y="265.4" width="69.8" height="25.26"/><path class="18f6a926-0d41-431d-961a-d38b1ab7aeea" d="M265.93,282.5l-5.69,3.92a3.67,3.67,0,0,1-3.67-3.67v-8.07a3.67,3.67,0,0,1,3.67-3.67l5.69,3.17Z"/><text class="431b5e16-b225-4fea-85a8-a92d4915ec09" transform="translate(273.57 283.31)">“Chant”</text><text class="ab7cb7e1-4d27-48da-821a-75d18a7535bb" transform="translate(340.89 281.85)">t<tspan class="e1006087-de19-4dcb-80cb-b7fdc5f3d30f" x="4.66" y="0">o</tspan></text><rect class="18f6a926-0d41-431d-961a-d38b1ab7aeea" x="370.46" y="264.71" width="81.73" height="25.26"/><path class="18f6a926-0d41-431d-961a-d38b1ab7aeea" d="M370.62,281.81l-5.69,3.92a3.67,3.67,0,0,1-3.67-3.67V274a3.67,3.67,0,0,1,3.67-3.67l5.69,3.17Z"/><text class="431b5e16-b225-4fea-85a8-a92d4915ec09" transform="translate(382.18 281.95)">“Ralphi<tspan class="a7f3d554-2f3f-427b-bf27-fe69c10bdb17" x="46.62" y="0">e</tspan><tspan x="54.38" y="0">”</tspan></text><text class="60a5208b-2837-4093-93cf-0af0ceebeed3" transform="translate(177.58 250.39)">Execute on Sta<tspan class="9a3880ac-1dea-4168-883f-8307bea382c2" x="106.94" y="0">r</tspan><tspan x="113.16" y="0">t</tspan></text><rect class="d33d7bc5-3bc9-4904-8472-d9f3aa1e5e5e" x="233.27" y="74.25" width="151.72" height="20.53"/><text class="43e903cd-e828-49af-8696-911f23a24ac8" transform="translate(282.49 89.83)">Ralphie</text><text class="60a5208b-2837-4093-93cf-0af0ceebeed3" transform="translate(139.12 283.98)">Send message</text></g></g></svg>