<svg xmlns="http://www.w3.org/2000/svg" viewBox="0 0 587.61 367.62"><defs><style>.\34 be43011-43b5-466d-9d50-59822e13f770{fill:#008012;}.\31 a059b8c-3e65-4a78-bb9c-27bab0ec7a33,.c320dcc1-39b6-4840-9dcc-17845e3f84e9{fill:none;stroke-miterlimit:10;}.c320dcc1-39b6-4840-9dcc-17845e3f84e9{stroke:#fff;stroke-width:4.26px;}.\33 e1a5014-971b-416d-ba28-b37da4f1ff56{fill:#fff;}.ecea0088-79c4-4f51-8442-cd781e3a0c09{fill:#f7931e;}.\31 a059b8c-3e65-4a78-bb9c-27bab0ec7a33{stroke:#f7931e;stroke-width:12px;}</style></defs><title>connectLeftBT</title><g id="73956d54-0417-4ec7-865a-3be1e07a7c12" data-name="Layer 2"><g id="f29048c7-22a6-428b-9470-7c70e6017234" data-name="senseWorldBT"><rect class="4be43011-43b5-466d-9d50-59822e13f770" x="43.87" y="5.98" width="32.31" height="20.77" transform="translate(12.93 -24.29) rotate(25.56)"/><path class="c320dcc1-39b6-4840-9dcc-17845e3f84e9" d="M126.57,202.59c-22.82,9.11-67.57,5.58-95.67-11.52C-3.18,170.31-3.59,121.44,28,88"/><rect class="3e1a5014-971b-416d-ba28-b37da4f1ff56" x="10.41" y="19.38" width="58.85" height="81.81" rx="12" ry="12" transform="translate(28.57 -11.09) rotate(24.49)"/><path class="3e1a5014-971b-416d-ba28-b37da4f1ff56" d="M437.59,63.79l-8.39,2.33A76.85,76.85,0,0,0,416.83,36,66.66,66.66,0,0,0,401.76,20.5l5.34-7.71A66.3,66.3,0,0,1,424.62,30,77.93,77.93,0,0,1,437.59,63.79Z"/><path class="3e1a5014-971b-416d-ba28-b37da4f1ff56" d="M424.26,67.49l-9.41,2.62A75.63,75.63,0,0,0,403.39,44.3a67.28,67.28,0,0,0-10.16-11.48l5.4-7.79A66.84,66.84,0,0,1,412.3,39.45,76.23,76.23,0,0,1,424.26,67.49Z"/><path class="3e1a5014-971b-416d-ba28-b37da4f1ff56" d="M398.87,47.78A75,75,0,0,1,409.8,71.51l-7.7,2.14a77.29,77.29,0,0,0-7.79-17.21,71.06,71.06,0,0,0-9.17-11.94l4.85-7A67.42,67.42,0,0,1,398.87,47.78Z"/><path class="3e1a5014-971b-416d-ba28-b37da4f1ff56" d="M441.14,24.83a78.9,78.9,0,0,1,10.31,35.11L443,62.29c-1-9.13-4.08-23.09-13.29-36.22A66.16,66.16,0,0,0,410.55,7.82L416,0A66.07,66.07,0,0,1,441.14,24.83Z"/></g><g id="f9eb2ca1-74f6-460f-9155-bfa18eebe649" data-name="headLeftBT"><rect class="ecea0088-79c4-4f51-8442-cd781e3a0c09" x="118.74" y="188.62" width="468.87" height="179" rx="12.49" ry="12.49" transform="translate(706.36 556.24) rotate(-180)"/><line class="1a059b8c-3e65-4a78-bb9c-27bab0ec7a33" x1="355.82" y1="214.03" x2="355.82" y2="71.19"/><circle class="ecea0088-79c4-4f51-8442-cd781e3a0c09" cx="355.82" cy="71.82" r="12.63"/><ellipse cx="535.14" cy="254.36" rx="14.93" ry="13.77"/><path d="M554.76,288.51s-130.85,9.93-134.49,0S437,319.72,460.4,329.22,554.76,288.51,554.76,288.51Z"/><ellipse cx="468.44" cy="254.35" rx="14.93" ry="13.77"/></g></g></svg>