<svg xmlns="http://www.w3.org/2000/svg" viewBox="0 0 671.63 690.22"><defs><style>.\34 e38e145-ed34-4677-b4a8-4e5940866513,.\35 8a6a934-d563-4596-8708-a15f15760bdb,.\37 083d069-1c1d-49b1-8dba-0fb4abde49b1,.\38 08085a6-b46d-4b07-b372-900e3bc7b412,.db8c9374-185b-4daa-be49-9d9ceb32b7c1,.fa7b90d9-34c4-42cf-9212-6bceda2bcb0e{fill:#fff;}.\37 083d069-1c1d-49b1-8dba-0fb4abde49b1,.\37 fb81666-ee1f-4020-b342-ec9bd7f7bcd6{stroke:#34880c;}.\32 2979e9f-08bb-4caf-8eec-e2f19bbc65c1,.\32 bc785eb-77db-49e5-a598-51fb620fed94,.\34 e38e145-ed34-4677-b4a8-4e5940866513,.\35 659f11e-d183-45f6-9c1b-a6869db414b9,.\35 8a6a934-d563-4596-8708-a15f15760bdb,.\35 cf8ce71-ab05-4703-aacb-13f4f4ccd6b0,.\36 b9f8350-5b73-4cba-995f-3d480916bc6f,.\37 083d069-1c1d-49b1-8dba-0fb4abde49b1,.\37 fb81666-ee1f-4020-b342-ec9bd7f7bcd6,.\38 08085a6-b46d-4b07-b372-900e3bc7b412,.c630fd32-9445-4071-a931-92f33571e470,.daa0dbad-ac55-4920-8e60-37a348d16278,.fa7b90d9-34c4-42cf-9212-6bceda2bcb0e{stroke-miterlimit:10;}.\35 8a6a934-d563-4596-8708-a15f15760bdb,.\37 083d069-1c1d-49b1-8dba-0fb4abde49b1,.\37 fb81666-ee1f-4020-b342-ec9bd7f7bcd6,.c630fd32-9445-4071-a931-92f33571e470{stroke-width:4px;}.\32 2979e9f-08bb-4caf-8eec-e2f19bbc65c1,.\35 cf8ce71-ab05-4703-aacb-13f4f4ccd6b0,.\36 b9f8350-5b73-4cba-995f-3d480916bc6f,.\37 fb81666-ee1f-4020-b342-ec9bd7f7bcd6,.c630fd32-9445-4071-a931-92f33571e470{fill:none;}.\31 6988f36-8fa3-4609-92ff-b533859fa0c0,.\32 bc785eb-77db-49e5-a598-51fb620fed94,.\35 659f11e-d183-45f6-9c1b-a6869db414b9{fill:#0a9bcc;}.c630fd32-9445-4071-a931-92f33571e470{stroke:#f7931e;}.\37 f82c0d1-e6b7-44ed-8954-bd1696a5a782{fill:#f7931e;}.\32 bc785eb-77db-49e5-a598-51fb620fed94,.\34 e38e145-ed34-4677-b4a8-4e5940866513,.\35 659f11e-d183-45f6-9c1b-a6869db414b9,.\35 8a6a934-d563-4596-8708-a15f15760bdb,.\36 b9f8350-5b73-4cba-995f-3d480916bc6f,.\38 08085a6-b46d-4b07-b372-900e3bc7b412,.daa0dbad-ac55-4920-8e60-37a348d16278{stroke:#000;}.\32 bc785eb-77db-49e5-a598-51fb620fed94{stroke-width:3px;}.\38 08085a6-b46d-4b07-b372-900e3bc7b412{stroke-width:3.52px;}.\34 b24f2bc-ae30-4630-bbb5-5191e3a373db,.daa0dbad-ac55-4920-8e60-37a348d16278{fill:#34880c;}.daa0dbad-ac55-4920-8e60-37a348d16278{stroke-width:2px;}.\32 2979e9f-08bb-4caf-8eec-e2f19bbc65c1,.\35 cf8ce71-ab05-4703-aacb-13f4f4ccd6b0,.fa7b90d9-34c4-42cf-9212-6bceda2bcb0e{stroke:#fff;}.\32 2979e9f-08bb-4caf-8eec-e2f19bbc65c1,.fa7b90d9-34c4-42cf-9212-6bceda2bcb0e{stroke-width:5px;}.\35 cf8ce71-ab05-4703-aacb-13f4f4ccd6b0{stroke-width:4.91px;}.db8c9374-185b-4daa-be49-9d9ceb32b7c1{font-size:20px;font-family:Roboto-Bold, Roboto;font-weight:700;}.dde616e7-a382-4e81-94b5-f5a6763494ba{letter-spacing:-0.08em;}.\34 15bfe8d-6caf-470e-b979-2605a3776616{letter-spacing:-0.01em;}.\33 a0c3030-480f-4e10-8d76-51de46f38a3f{letter-spacing:-0.01em;}.\34 ce13ba6-1dd6-4a14-96c6-435ffdc5e55f{letter-spacing:0.01em;}</style></defs><title>curriculum</title><g id="5ef24fe2-70d7-4c07-b30d-6b2b08fefb0e" data-name="Layer 2"><g id="85942226-7a0a-477c-888e-db1e4af69fb7" data-name="Layer 1"><polygon class="7083d069-1c1d-49b1-8dba-0fb4abde49b1" points="267.14 229.72 400.64 229.72 467.4 345.23 400.64 460.73 267.14 460.73 200.38 345.23 267.14 229.72"/><polygon class="7fb81666-ee1f-4020-b342-ec9bd7f7bcd6" points="266.88 228.72 400.38 228.72 467.14 344.73 400.38 460.73 266.88 460.73 200.13 344.73 266.88 228.72"/><polygon class="16988f36-8fa3-4609-92ff-b533859fa0c0" points="66.84 116.29 200.35 116.29 267.1 231.79 200.35 347.29 66.84 347.29 0.09 231.79 66.84 116.29"/><polygon class="c630fd32-9445-4071-a931-92f33571e470" points="469.06 116.92 602.57 116.92 669.32 232.42 602.57 347.92 469.06 347.92 402.31 232.42 469.06 116.92"/><circle class="7f82c0d1-e6b7-44ed-8954-bd1696a5a782" cx="535.89" cy="224.06" r="51.35"/><circle class="2bc785eb-77db-49e5-a598-51fb620fed94" cx="131.75" cy="231.32" r="59.33" transform="translate(-92.49 87.84) rotate(-27.72)"/><circle class="808085a6-b46d-4b07-b372-900e3bc7b412" cx="131.75" cy="231.32" r="44.01" transform="translate(-92.49 87.84) rotate(-27.72)"/><path class="5659f11e-d183-45f6-9c1b-a6869db414b9" d="M119.69,172.53a13.21,13.21,0,0,1,24.12,0"/><circle cx="131.75" cy="168.61" r="1.04"/><path class="5659f11e-d183-45f6-9c1b-a6869db414b9" d="M190.48,219.27a13.21,13.21,0,0,1,0,24.12"/><circle cx="194.4" cy="231.32" r="1.04"/><path class="5659f11e-d183-45f6-9c1b-a6869db414b9" d="M143.81,290.35a13.21,13.21,0,0,1-24.12,0"/><circle cx="131.75" cy="294.27" r="1.04"/><path class="5659f11e-d183-45f6-9c1b-a6869db414b9" d="M73,243.38a13.21,13.21,0,0,1,0-24.12"/><circle cx="69.1" cy="231.32" r="1.04"/><path class="5659f11e-d183-45f6-9c1b-a6869db414b9" d="M165.47,182.18a13.21,13.21,0,0,1,17.05,17.05"/><circle cx="176.77" cy="187.93" r="1.04" transform="translate(-81.11 180.04) rotate(-45)"/><path class="5659f11e-d183-45f6-9c1b-a6869db414b9" d="M99.71,282a13.21,13.21,0,0,1-17.24-16.86"/><circle cx="88.35" cy="276.37" r="1.04" transform="translate(-171.04 146.35) rotate(-45.65)"/><path class="5659f11e-d183-45f6-9c1b-a6869db414b9" d="M81.29,198.45A13.21,13.21,0,0,1,98.15,181.2"/><circle cx="86.92" cy="187.08" r="1.04" transform="translate(-107.62 118.46) rotate(-45.65)"/><path class="5659f11e-d183-45f6-9c1b-a6869db414b9" d="M182.4,263.61a13.21,13.21,0,0,1-16.86,17.24"/><circle cx="176.78" cy="274.97" r="1.04" transform="translate(-143.42 209.16) rotate(-45.65)"/><circle class="daa0dbad-ac55-4920-8e60-37a348d16278" cx="332.13" cy="340.44" r="51.35"/><polygon class="58a6a934-d563-4596-8708-a15f15760bdb" points="353.93 340.44 315.91 362.39 315.91 318.49 353.93 340.44"/><ellipse class="4e38e145-ed34-4677-b4a8-4e5940866513" cx="515.62" cy="243.43" rx="8.46" ry="5.98" transform="translate(-32.89 87.68) rotate(-9.42)"/><line class="fa7b90d9-34c4-42cf-9212-6bceda2bcb0e" x1="521.41" y1="242.72" x2="521.41" y2="195.72"/><ellipse class="4e38e145-ed34-4677-b4a8-4e5940866513" cx="544.69" cy="239.92" rx="8.46" ry="5.98" transform="translate(-31.92 92.39) rotate(-9.42)"/><line class="22979e9f-08bb-4caf-8eec-e2f19bbc65c1" x1="550.41" y1="239.72" x2="550.48" y2="192.28"/><path class="5cf8ce71-ab05-4703-aacb-13f4f4ccd6b0" d="M523.24,198.07a33.18,33.18,0,0,0,26.08-3.7"/><polygon class="7f82c0d1-e6b7-44ed-8954-bd1696a5a782" points="467 340.73 600.51 340.73 667.26 456.73 600.51 572.73 467 572.73 400.25 456.73 467 340.73"/><polygon class="16988f36-8fa3-4609-92ff-b533859fa0c0" points="66.75 341.73 200.26 341.73 267.01 457.73 200.26 573.73 66.75 573.73 0 457.73 66.75 341.73"/><polygon class="4b24f2bc-ae30-4630-bbb5-5191e3a373db" points="267.03 0 400.53 0 467.29 116 400.53 232 267.03 232 200.28 116 267.03 0"/><line class="6b9f8350-5b73-4cba-995f-3d480916bc6f" x1="519.35" y1="238.02" x2="519.4" y2="195.72"/><line class="6b9f8350-5b73-4cba-995f-3d480916bc6f" x1="523.93" y1="243.14" x2="524.06" y2="200.76"/><line class="6b9f8350-5b73-4cba-995f-3d480916bc6f" x1="552.77" y1="239.74" x2="552.78" y2="192.3"/><line class="6b9f8350-5b73-4cba-995f-3d480916bc6f" x1="547.98" y1="234.64" x2="548.1" y2="197.76"/><line class="6b9f8350-5b73-4cba-995f-3d480916bc6f" x1="553.29" y1="192.18" x2="547.97" y2="192.12"/><line class="6b9f8350-5b73-4cba-995f-3d480916bc6f" x1="524.24" y1="195.26" x2="518.92" y2="195.2"/><path class="6b9f8350-5b73-4cba-995f-3d480916bc6f" d="M548.23,192.06a32.91,32.91,0,0,1-24.1,3.19"/><path class="6b9f8350-5b73-4cba-995f-3d480916bc6f" d="M524.42,201.26a39.7,39.7,0,0,0,23.43-3.06"/><text class="db8c9374-185b-4daa-be49-9d9ceb32b7c1" transform="translate(463.22 412.7)">Blocky<tspan class="dde616e7-a382-4e81-94b5-f5a6763494ba" x="60.53" y="0">T</tspan><tspan x="71.26" y="0">alky can </tspan><tspan x="-15.58" y="24">be used create rich, </tspan><tspan x="-49.63" y="48">inte</tspan><tspan class="415bfe8d-6caf-470e-b979-2605a3776616" x="-15.56" y="48">r</tspan><tspan x="-8.55" y="48">active musical d</tspan><tspan class="3a0c3030-480f-4e10-8d76-51de46f38a3f" x="137.35" y="48">e</tspan><tspan x="148.04" y="48">vices </tspan><tspan x="-9.46" y="72">and pe</tspan><tspan class="4ce13ba6-1dd6-4a14-96c6-435ffdc5e55f" x="50.78" y="72">r</tspan><tspan x="58.27" y="72">formances</tspan></text><text class="db8c9374-185b-4daa-be49-9d9ceb32b7c1" transform="translate(85.86 399.89)">LPC has a <tspan x="-28.09" y="24">computer music </tspan><tspan x="-27.95" y="48">curriculum does </tspan><tspan x="-22.75" y="72">not require any </tspan><tspan x="-14.15" y="96">prior musical </tspan><tspan x="-7.51" y="120">experience.</tspan></text><text class="db8c9374-185b-4daa-be49-9d9ceb32b7c1" transform="translate(239.9 94.59)">Blocky<tspan class="dde616e7-a382-4e81-94b5-f5a6763494ba" x="60.53" y="0">T</tspan><tspan x="71.26" y="0">alky includes </tspan><tspan x="1.25" y="24">a powe</tspan><tspan class="4ce13ba6-1dd6-4a14-96c6-435ffdc5e55f" x="65.03" y="24">r</tspan><tspan x="72.52" y="24">ful computer </tspan><tspan x="36.07" y="48">music </tspan><tspan class="415bfe8d-6caf-470e-b979-2605a3776616" x="95.58" y="48">t</tspan><tspan x="102.04" y="48">oolkit</tspan></text><polygon class="4b24f2bc-ae30-4630-bbb5-5191e3a373db" points="267.4 458.22 400.91 458.22 467.66 574.22 400.91 690.22 267.4 690.22 200.65 574.22 267.4 458.22"/><text class="db8c9374-185b-4daa-be49-9d9ceb32b7c1" transform="translate(258.79 565.81)">Click here <tspan class="415bfe8d-6caf-470e-b979-2605a3776616" x="94.87" y="0">t</tspan><tspan x="101.34" y="0">o see</tspan><tspan x="6.93" y="24" xml:space="preserve"> the curriculum </tspan></text></g></g></svg>