<svg xmlns="http://www.w3.org/2000/svg" viewBox="0 0 488.79 488.79"><defs><style>.\34 f81ae3c-2bef-4f2c-8308-9764387f8f8d{fill:#43b7ff;}.\38 4207bcf-007a-42c5-8fce-fd0fa685c72a{fill:#fff;}</style></defs><title>googleBlockly</title><g id="6fb8588e-7e7a-47e2-b77c-919b976f83fb" data-name="Layer 2"><g id="0654a634-132c-4e76-8bc9-674c340909ae" data-name="connectCode"><circle class="4f81ae3c-2bef-4f2c-8308-9764387f8f8d" cx="244.39" cy="244.39" r="244.39"/><path class="84207bcf-007a-42c5-8fce-fd0fa685c72a" d="M108.28,385.57l33.2-40.45L168,412.3l83.33-32.83-43.89-29.54a31.77,31.77,0,0,1,17.91-41.2l65-25.63A31.77,31.77,0,0,1,331.55,301l-6.61,49.44,79-31.14-26.48-67.21L429.43,259a31.77,31.77,0,0,0,17.91-41.2l-25.63-65a31.77,31.77,0,0,0-41.2-17.91l-31,46.11L322,111.35l-80.18,31.59L248,96.62a31.77,31.77,0,0,0-41.2-17.91l-65,25.63a31.77,31.77,0,0,0-17.91,41.2L165,173.22,86,204.35l27.42,69.59L59.36,261.41a31.77,31.77,0,0,0-17.91,41.2l25.63,65A31.77,31.77,0,0,0,108.28,385.57Z"/></g></g></svg>