<svg xmlns="http://www.w3.org/2000/svg" viewBox="0 0 278.48 336.53"><defs><style>.\34 d6e367d-0f29-4549-8a0e-1f164ee6bf84{fill:#95989a;}.\37 a315ead-24fd-4f0c-8d9a-20e31aeb22b0{fill:#34880c;}.\38 385782a-b37b-4214-b9b5-9b84f5e520c4,.d71d95fe-b636-46aa-9739-3e25884f7d81{fill:#fff;}.\30 b383e3d-7f01-4f3b-bbf0-d385643ae020,.\34 a047759-282e-4ebe-8077-d822fd0e1b68{fill:none;stroke-miterlimit:10;stroke-width:3px;}.\30 b383e3d-7f01-4f3b-bbf0-d385643ae020{stroke:#6f7172;}.\34 a047759-282e-4ebe-8077-d822fd0e1b68{stroke:#43b7ff;}.d2e80076-7951-4dea-86ac-50548cedfd0d{fill:#43b7ff;}.\33 db31fe5-b2af-4dab-9caf-3c23bbff8ae5{fill:#f7931e;}.d71d95fe-b636-46aa-9739-3e25884f7d81{font-size:16px;font-family:Roboto-Bold, Roboto;font-weight:700;}</style></defs><title>mobileApps_1</title><g id="dbf6d134-c163-4373-bde8-e178b90ef58b" data-name="Layer 2"><g id="b45419fa-b016-413a-acbe-e84230840402" data-name="senseWorldBT"><path class="4d6e367d-0f29-4549-8a0e-1f164ee6bf84" d="M239.63,293.15l-6.88-5.34a76.85,76.85,0,0,0,16.8-27.92A66.66,66.66,0,0,0,253,238.57l9.37-.32A66.3,66.3,0,0,1,259,262.56,77.93,77.93,0,0,1,239.63,293.15Z"/><path class="4d6e367d-0f29-4549-8a0e-1f164ee6bf84" d="M228.7,284.66l-7.72-6a75.63,75.63,0,0,0,13.87-24.59,67.28,67.28,0,0,0,3.15-15l9.47-.32a66.84,66.84,0,0,1-3.41,19.58A76.23,76.23,0,0,1,228.7,284.66Z"/><path class="4d6e367d-0f29-4549-8a0e-1f164ee6bf84" d="M229.36,252.52a75,75,0,0,1-12.52,22.93l-6.31-4.9A77.29,77.29,0,0,0,219.7,254a71.06,71.06,0,0,0,4.11-14.48l8.52-.29A67.42,67.42,0,0,1,229.36,252.52Z"/><path class="4d6e367d-0f29-4549-8a0e-1f164ee6bf84" d="M273,272.74A78.9,78.9,0,0,1,251,302l-6.93-5.38c6.71-6.28,16.09-17.05,21.13-32.28A66.16,66.16,0,0,0,268.39,238l9.51-.32A66.07,66.07,0,0,1,273,272.74Z"/></g><g id="847747c8-b8f4-44c4-9119-08825c404c1d" data-name="mobileApps"><rect class="7a315ead-24fd-4f0c-8d9a-20e31aeb22b0" width="172.46" height="336.53" rx="18.65" ry="18.65"/><rect class="4d6e367d-0f29-4549-8a0e-1f164ee6bf84" x="9.18" y="23.39" width="154.57" height="274.29"/><rect class="8385782a-b37b-4214-b9b5-9b84f5e520c4" x="63.07" y="9.11" width="45.63" height="8.58" rx="3.15" ry="3.15"/><rect class="7a315ead-24fd-4f0c-8d9a-20e31aeb22b0" x="172.12" y="69.34" width="2.41" height="20.58" rx="1.01" ry="1.01"/><rect class="7a315ead-24fd-4f0c-8d9a-20e31aeb22b0" x="172.15" y="95.35" width="2.41" height="20.58" rx="1.01" ry="1.01"/><rect class="8385782a-b37b-4214-b9b5-9b84f5e520c4" x="58.59" y="309.86" width="55.83" height="15.58" rx="4.71" ry="4.71"/><line class="0b383e3d-7f01-4f3b-bbf0-d385643ae020" x1="24.71" y1="75.83" x2="147.45" y2="75.83"/><line class="4a047759-282e-4ebe-8077-d822fd0e1b68" x1="24.71" y1="75.83" x2="73.65" y2="75.83"/><circle class="d2e80076-7951-4dea-86ac-50548cedfd0d" cx="77.59" cy="75.8" r="8.72"/><rect class="3db31fe5-b2af-4dab-9caf-3c23bbff8ae5" x="27.39" y="141.25" width="121.94" height="26.12" rx="12.58" ry="12.58"/><text class="d71d95fe-b636-46aa-9739-3e25884f7d81" transform="translate(34.33 159.22)">Send Message</text></g></g></svg>