<svg xmlns="http://www.w3.org/2000/svg" viewBox="0 0 140.35 270.57"><defs><style>.\30 71edead-9e9a-4a40-b630-b65203ade715{fill:#0aac32;}.\35 7a41c58-2f6e-4953-9a2b-7dd6559c015b{fill:#43b7ff;}.d55f59ba-4456-46be-a85a-2995b6353521{fill:#fff;}</style></defs><title>modEdCreation</title><g id="1c19656e-3bea-4f75-8dd8-6fa6ab0a2ce0" data-name="Layer 2"><g id="d702c0f4-a162-4fb2-b65c-e6d8f14a7dce" data-name="appsBT"><rect class="071edead-9e9a-4a40-b630-b65203ade715" width="138.66" height="270.57" rx="15" ry="15"/><rect class="57a41c58-2f6e-4953-9a2b-7dd6559c015b" x="7.38" y="21.32" width="124.27" height="220.53"/><rect class="d55f59ba-4456-46be-a85a-2995b6353521" x="50.71" y="7.32" width="36.69" height="6.9" rx="2.53" ry="2.53"/><rect class="071edead-9e9a-4a40-b630-b65203ade715" x="138.38" y="55.75" width="1.94" height="16.54" rx="0.81" ry="0.81"/><rect class="071edead-9e9a-4a40-b630-b65203ade715" x="138.41" y="76.66" width="1.94" height="16.54" rx="0.81" ry="0.81"/><rect class="d55f59ba-4456-46be-a85a-2995b6353521" x="47.1" y="249.12" width="44.89" height="12.53" rx="3.79" ry="3.79"/><circle class="d55f59ba-4456-46be-a85a-2995b6353521" cx="71.18" cy="103.67" r="27.01"/><path class="d55f59ba-4456-46be-a85a-2995b6353521" d="M96.35,113.57c-16.82-.08-33.64-.38-50.46-.46,3.65,7.25,7.31,14.46,11,21.46h29c2-3,4-7.63,5.95-11.67C93.32,119.7,94.85,116.73,96.35,113.57Z"/><path class="d55f59ba-4456-46be-a85a-2995b6353521" d="M54.18,134.58c-1.9,0-3.46,2.1-3.46,4s1.56,4,3.46,4h6.16c-1.16-3-2.32-5-3.48-8Z"/><path class="d55f59ba-4456-46be-a85a-2995b6353521" d="M88.19,134.58H85.8c-1.15,3-2.29,5-3.44,8h5.83c1.9,0,3.46-2.1,3.46-4S90.09,134.58,88.19,134.58Z"/><path class="d55f59ba-4456-46be-a85a-2995b6353521" d="M56.85,134.58c1.16,3,2.32,5,3.48,8h22c1.15-3,2.29-5,3.44-8Z"/><rect class="d55f59ba-4456-46be-a85a-2995b6353521" x="50.72" y="143.06" width="40.93" height="6.91" rx="3.46" ry="3.46"/><rect class="d55f59ba-4456-46be-a85a-2995b6353521" x="50.71" y="151" width="40.93" height="6.91" rx="3.46" ry="3.46"/><rect class="d55f59ba-4456-46be-a85a-2995b6353521" x="50.71" y="158.84" width="40.93" height="6.91" rx="3.46" ry="3.46"/><ellipse class="d55f59ba-4456-46be-a85a-2995b6353521" cx="71.32" cy="166.53" rx="12.14" ry="4.23"/><rect class="d55f59ba-4456-46be-a85a-2995b6353521" x="69.92" y="64.02" width="2.12" height="7.28" rx="1.06" ry="1.06"/><rect class="d55f59ba-4456-46be-a85a-2995b6353521" x="104.58" y="100.04" width="2.12" height="7.28" rx="1.06" ry="1.06" transform="translate(209.32 -1.97) rotate(90)"/><rect class="d55f59ba-4456-46be-a85a-2995b6353521" x="35.66" y="100.04" width="2.12" height="7.28" rx="1.06" ry="1.06" transform="translate(140.4 66.95) rotate(90)"/><rect class="d55f59ba-4456-46be-a85a-2995b6353521" x="96.95" y="74.39" width="2.12" height="7.28" rx="1.06" ry="1.06" transform="translate(83.88 -46.45) rotate(45)"/><rect class="d55f59ba-4456-46be-a85a-2995b6353521" x="44.69" y="74.39" width="2.12" height="7.28" rx="1.06" ry="1.06" transform="translate(-41.77 55.2) rotate(-45)"/></g></g></svg>