<svg xmlns="http://www.w3.org/2000/svg" viewBox="0 0 626.78 416.92"><defs><style>.\32 05ebc17-3711-4d82-aec2-485d2588716f{fill:#ccc;}.df272bb7-b012-4266-8c5d-1ed21b95b41f{fill:#f2f2f2;}.\35 35fdad4-22ae-4dee-a121-2553810944d1{fill:#282828;}.\36 503d69e-e78e-4e75-9e14-0c9c6a02dea6{fill:#9b9b9b;}.cdd57b4a-f9b5-40a7-875a-1f93498f3a80{fill:#5b5b5b;}.fd1a0b5b-7b5c-44ab-bbb6-5b7e5ece5e2f{fill:gray;}.\36 d6da60a-0cbf-4feb-a873-afa4adcc00c2{fill:#4d4d4d;}.b2dea884-9638-4394-ae82-faef394a9655{fill:#34880c;}.e3cccd23-e8d2-4046-ba40-1f1edf6c060e{fill:#f7931e;}.\30 46ce364-4b55-40f1-8c50-51179348f267{fill:#0a9bcc;}.\33 9c81a21-5c5a-4be7-af01-e1c86cf3ed07,.b0a5fec8-27a5-44f4-8a19-a609bd7e3162{font-size:12.94px;fill:#fff;font-family:Roboto-Bold, Roboto;font-weight:700;}.\32 675d2ee-4de2-4e2b-a6d5-c14b5e84ed45{letter-spacing:0.02em;}.f9b55e10-3cc2-4b08-8c34-1c37db73352b{letter-spacing:-0.04em;}.b0a5fec8-27a5-44f4-8a19-a609bd7e3162,.f9a81cd6-1c66-4003-9020-25c2dd55f0d4{letter-spacing:-0.01em;}.\36 d64efb0-af63-4acb-b5ce-cfd417b3d701{letter-spacing:0em;}.\37 c3b4b3a-7d0d-4dd2-9c54-eae8a7554353{letter-spacing:-0.01em;}</style></defs><title>senseAndImpactCode</title><g id="4d944be5-9928-4c47-a8ed-b21caa994e31" data-name="Layer 2"><g id="7e88c3ad-c858-4781-bc32-6c236b89afdd" data-name="expressYourselfCode"><rect class="205ebc17-3711-4d82-aec2-485d2588716f" width="626.78" height="416.92"/><rect class="df272bb7-b012-4266-8c5d-1ed21b95b41f" y="25.18" width="626.78" height="391.74"/><circle class="535fdad4-22ae-4dee-a121-2553810944d1" cx="10.31" cy="12.99" r="3.31"/><circle class="6503d69e-e78e-4e75-9e14-0c9c6a02dea6" cx="28.99" cy="12.99" r="3.31"/><circle class="cdd57b4a-f9b5-40a7-875a-1f93498f3a80" cx="20.03" cy="13.03" r="3.31"/><rect class="fd1a0b5b-7b5c-44ab-bbb6-5b7e5ece5e2f" x="607.2" y="6.13" width="11.19" height="2.8" rx="1.19" ry="1.19"/><rect class="fd1a0b5b-7b5c-44ab-bbb6-5b7e5ece5e2f" x="607.2" y="10.6" width="11.19" height="2.8" rx="1.19" ry="1.19"/><rect class="fd1a0b5b-7b5c-44ab-bbb6-5b7e5ece5e2f" x="607.2" y="15.07" width="11.19" height="2.8" rx="1.19" ry="1.19"/><rect class="6d6da60a-0cbf-4feb-a873-afa4adcc00c2" x="11.19" y="67.15" width="604.39" height="33.58"/><rect class="6d6da60a-0cbf-4feb-a873-afa4adcc00c2" x="268.62" y="41.97" width="81.15" height="11.19"/><path class="b2dea884-9638-4394-ae82-faef394a9655" d="M306.21,170.74a32.59,32.59,0,0,1-32.59,32.59H55.1a32.59,32.59,0,0,1-32.59-32.59h0A32.59,32.59,0,0,1,55.1,138.16H273.62a32.59,32.59,0,0,1,32.59,32.59Z"/><path class="e3cccd23-e8d2-4046-ba40-1f1edf6c060e" d="M388,180.33a16.61,16.61,0,0,1-16.61,16.61H62.13a16.61,16.61,0,0,1-16.61-16.61h0a16.61,16.61,0,0,1,16.61-16.61H371.38A16.61,16.61,0,0,1,388,180.33Z"/><polygon class="e3cccd23-e8d2-4046-ba40-1f1edf6c060e" points="66.29 200.21 63.52 194.39 69.07 194.39 66.29 200.21"/><polygon class="b2dea884-9638-4394-ae82-faef394a9655" points="66.29 177.63 58 159.88 74.58 159.88 66.29 177.63"/><rect class="046ce364-4b55-40f1-8c50-51179348f267" x="194.12" y="143.52" width="7.67" height="12.78"/><rect class="046ce364-4b55-40f1-8c50-51179348f267" x="215.66" y="142.36" width="56.23" height="16.61"/><text class="39c81a21-5c5a-4be7-af01-e1c86cf3ed07" transform="translate(70.59 154.45)">When sensor on po<tspan class="2675d2ee-4de2-4e2b-a6d5-c14b5e84ed45" x="111.18" y="0">r</tspan><tspan x="116.21" y="0">t 1 is changed</tspan></text><text class="39c81a21-5c5a-4be7-af01-e1c86cf3ed07" transform="translate(69.07 184.8)">Send message</text><rect class="046ce364-4b55-40f1-8c50-51179348f267" x="164.73" y="168.94" width="61.57" height="22.28"/><path class="046ce364-4b55-40f1-8c50-51179348f267" d="M164.86,184l-5,3.46a3.23,3.23,0,0,1-3.23-3.23v-7.12a3.23,3.23,0,0,1,3.23-3.23l5,2.8Z"/><text class="39c81a21-5c5a-4be7-af01-e1c86cf3ed07" transform="translate(174.5 184.13)">“hell<tspan class="f9b55e10-3cc2-4b08-8c34-1c37db73352b" x="26.34" y="0">o</tspan><tspan x="33.1" y="0">”</tspan></text><text class="b0a5fec8-27a5-44f4-8a19-a609bd7e3162" transform="translate(230.99 183.45)">t<tspan class="6d64efb0-af63-4acb-b5ce-cfd417b3d701" x="4.18" y="0">o</tspan></text><rect class="046ce364-4b55-40f1-8c50-51179348f267" x="257.07" y="168.32" width="72.1" height="22.28"/><path class="046ce364-4b55-40f1-8c50-51179348f267" d="M257.21,183.41l-5,3.46a3.23,3.23,0,0,1-3.23-3.23v-7.12a3.23,3.23,0,0,1,3.23-3.23l5,2.8Z"/><text class="39c81a21-5c5a-4be7-af01-e1c86cf3ed07" transform="translate(265.74 183.64)">“Ralphi<tspan class="7c3b4b3a-7d0d-4dd2-9c54-eae8a7554353" x="41.82" y="0">e</tspan><tspan x="48.72" y="0">”</tspan></text><path class="b2dea884-9638-4394-ae82-faef394a9655" d="M519.23,261.76a32.59,32.59,0,0,1-32.59,32.59H268.12a32.59,32.59,0,0,1-32.59-32.59h0a32.59,32.59,0,0,1,32.59-32.59H486.64a32.59,32.59,0,0,1,32.59,32.59Z"/><path class="e3cccd23-e8d2-4046-ba40-1f1edf6c060e" d="M601,271.35A16.61,16.61,0,0,1,584.4,288H275.14a16.61,16.61,0,0,1-16.61-16.61h0a16.61,16.61,0,0,1,16.61-16.61H584.4A16.61,16.61,0,0,1,601,271.35Z"/><polygon class="e3cccd23-e8d2-4046-ba40-1f1edf6c060e" points="279.31 291.23 276.54 285.4 282.08 285.4 279.31 291.23"/><polygon class="b2dea884-9638-4394-ae82-faef394a9655" points="279.31 268.65 271.02 250.9 287.6 250.9 279.31 268.65"/><rect class="046ce364-4b55-40f1-8c50-51179348f267" x="407.13" y="234.54" width="7.67" height="12.78"/><rect class="046ce364-4b55-40f1-8c50-51179348f267" x="428.68" y="233.38" width="56.23" height="16.61"/><text class="39c81a21-5c5a-4be7-af01-e1c86cf3ed07" transform="translate(283.4 245.86)">When sensor on po<tspan class="2675d2ee-4de2-4e2b-a6d5-c14b5e84ed45" x="111.18" y="0">r</tspan><tspan x="116.21" y="0">t 2 is </tspan><tspan class="f9a81cd6-1c66-4003-9020-25c2dd55f0d4" x="147.75" y="0">t</tspan><tspan x="151.93" y="0">ouched</tspan></text><text class="39c81a21-5c5a-4be7-af01-e1c86cf3ed07" transform="translate(282.08 275.82)">Send message</text><rect class="046ce364-4b55-40f1-8c50-51179348f267" x="377.74" y="259.96" width="61.57" height="22.28"/><path class="046ce364-4b55-40f1-8c50-51179348f267" d="M377.88,275l-5,3.46a3.23,3.23,0,0,1-3.23-3.23v-7.12a3.23,3.23,0,0,1,3.23-3.23l5,2.8Z"/><text class="39c81a21-5c5a-4be7-af01-e1c86cf3ed07" transform="translate(389.61 276.22)">“Sko!”</text><text class="b0a5fec8-27a5-44f4-8a19-a609bd7e3162" transform="translate(444 274.46)">t<tspan class="6d64efb0-af63-4acb-b5ce-cfd417b3d701" x="4.18" y="0">o</tspan></text><rect class="046ce364-4b55-40f1-8c50-51179348f267" x="470.09" y="259.34" width="72.1" height="22.28"/><path class="046ce364-4b55-40f1-8c50-51179348f267" d="M470.22,274.43l-5,3.46a3.23,3.23,0,0,1-3.23-3.23v-7.12a3.23,3.23,0,0,1,3.23-3.23l5,2.8Z"/><text class="39c81a21-5c5a-4be7-af01-e1c86cf3ed07" transform="translate(478.75 275.58)">“Ralphi<tspan class="7c3b4b3a-7d0d-4dd2-9c54-eae8a7554353" x="41.82" y="0">e</tspan><tspan x="48.72" y="0">”</tspan></text><path class="b2dea884-9638-4394-ae82-faef394a9655" d="M344.24,352.55a32.59,32.59,0,0,1-32.59,32.59H93.14a32.59,32.59,0,0,1-32.59-32.59h0A32.59,32.59,0,0,1,93.14,320H311.66a32.59,32.59,0,0,1,32.59,32.59Z"/><path class="e3cccd23-e8d2-4046-ba40-1f1edf6c060e" d="M426,362.14a16.61,16.61,0,0,1-16.61,16.61H100.16a16.61,16.61,0,0,1-16.61-16.61h0a16.61,16.61,0,0,1,16.61-16.61H409.42A16.61,16.61,0,0,1,426,362.14Z"/><polygon class="e3cccd23-e8d2-4046-ba40-1f1edf6c060e" points="104.33 382.02 101.55 376.19 107.1 376.19 104.33 382.02"/><polygon class="b2dea884-9638-4394-ae82-faef394a9655" points="104.33 359.44 96.04 341.69 112.62 341.69 104.33 359.44"/><rect class="046ce364-4b55-40f1-8c50-51179348f267" x="232.15" y="325.33" width="7.67" height="12.78"/><rect class="046ce364-4b55-40f1-8c50-51179348f267" x="253.69" y="324.17" width="56.23" height="16.61"/><text class="39c81a21-5c5a-4be7-af01-e1c86cf3ed07" transform="translate(108.58 336.5)">When sensor on po<tspan class="2675d2ee-4de2-4e2b-a6d5-c14b5e84ed45" x="111.18" y="0">r</tspan><tspan x="116.21" y="0" xml:space="preserve">t 3 is      off</tspan></text><text class="39c81a21-5c5a-4be7-af01-e1c86cf3ed07" transform="translate(107.1 366.61)">Send message</text><rect class="046ce364-4b55-40f1-8c50-51179348f267" x="202.76" y="350.75" width="61.57" height="22.28"/><path class="046ce364-4b55-40f1-8c50-51179348f267" d="M202.9,365.83l-5,3.46a3.23,3.23,0,0,1-3.23-3.23v-7.12a3.23,3.23,0,0,1,3.23-3.23l5,2.8Z"/><text class="39c81a21-5c5a-4be7-af01-e1c86cf3ed07" transform="translate(210.96 366.09)">“Buffs”</text><text class="b0a5fec8-27a5-44f4-8a19-a609bd7e3162" transform="translate(269.02 365.26)">t<tspan class="6d64efb0-af63-4acb-b5ce-cfd417b3d701" x="4.18" y="0">o</tspan></text><rect class="046ce364-4b55-40f1-8c50-51179348f267" x="295.11" y="350.13" width="72.1" height="22.28"/><path class="046ce364-4b55-40f1-8c50-51179348f267" d="M295.24,365.22l-5,3.46a3.23,3.23,0,0,1-3.23-3.23v-7.12a3.23,3.23,0,0,1,3.23-3.23l5,2.8Z"/><text class="39c81a21-5c5a-4be7-af01-e1c86cf3ed07" transform="translate(303.77 365.46)">“Ralphi<tspan class="7c3b4b3a-7d0d-4dd2-9c54-eae8a7554353" x="41.82" y="0">e</tspan><tspan x="48.72" y="0">”</tspan></text></g></g></svg>