<svg xmlns="http://www.w3.org/2000/svg" viewBox="0 0 488.79 488.79"><defs><style>.f23d1ef7-39cf-49db-bff4-d1526e32b319{fill:#f7931e;}.aaca53da-93f5-4eb9-be57-1ce1da9e4714{fill:#fff;}</style></defs><title>elixirProgram</title><g id="408a5658-5abe-4b07-8db8-ace336910a31" data-name="Layer 2"><g id="53020e88-9d1b-4894-9e9e-13a6653243b5" data-name="connectCode"><circle class="f23d1ef7-39cf-49db-bff4-d1526e32b319" cx="244.39" cy="244.39" r="244.39"/><path class="aaca53da-93f5-4eb9-be57-1ce1da9e4714" d="M292.72,194.46c-12.18-12.07-23.42-27.41-28.06-47.89-6.71-29.57,2.17-61.69-13.18-69-5.38-2.58-11.55-1.07-16,.68-19,11.67-49.91,34.47-73.31,73.63-20.55,34.38-25.53,65-26.48,71.31,0,0-3.88,25.57,2.93,70.44a45.53,45.53,0,0,0,3.61,12.19c.37.81.76,1.67,1.17,2.52A105.15,105.15,0,1,0,292.72,194.46Z"/></g></g></svg>