<svg xmlns="http://www.w3.org/2000/svg" viewBox="0 0 681.81 308.43"><defs><style>.\33 5668403-130b-4525-b71a-5a6314108f55,.\35 f5bf31c-bab8-457a-be01-004f4ceb1d12,.ceb6e554-89a3-45ba-bf72-1862bab7a513{fill:#fff;stroke:#fff;}.\33 5668403-130b-4525-b71a-5a6314108f55,.\35 f5bf31c-bab8-457a-be01-004f4ceb1d12,.\37 0fa943d-a576-4578-86d3-15dcedfa6312,.ceb6e554-89a3-45ba-bf72-1862bab7a513{stroke-miterlimit:10;}.\33 5668403-130b-4525-b71a-5a6314108f55{stroke-width:5px;}.\35 f5bf31c-bab8-457a-be01-004f4ceb1d12{stroke-width:4.91px;}.a3a82240-e0b0-488f-8da4-e7838f88fb5b{fill:#0a9bcc;}.\37 0fa943d-a576-4578-86d3-15dcedfa6312{fill:none;stroke:#0a9bcc;stroke-width:12px;}</style></defs><title>Asset 8</title><g id="ce4419a0-b96c-4de7-8a68-fc5c148b980b" data-name="Layer 2"><g id="ab6b6274-acb0-48a3-bc8e-0da2b09b4e58" data-name="Layer 1"><ellipse class="ceb6e554-89a3-45ba-bf72-1862bab7a513" cx="59.46" cy="168.72" rx="8.46" ry="5.98" transform="translate(-26.81 12.01) rotate(-9.42)"/><line class="35668403-130b-4525-b71a-5a6314108f55" x1="65.25" y1="168.01" x2="65.25" y2="121.01"/><ellipse class="ceb6e554-89a3-45ba-bf72-1862bab7a513" cx="88.53" cy="165.21" rx="8.46" ry="5.98" transform="translate(-25.85 16.72) rotate(-9.42)"/><line class="35668403-130b-4525-b71a-5a6314108f55" x1="94.25" y1="165.01" x2="94.31" y2="117.57"/><path class="5f5bf31c-bab8-457a-be01-004f4ceb1d12" d="M67.08,123.35a33.18,33.18,0,0,0,26.08-3.7"/><line class="ceb6e554-89a3-45ba-bf72-1862bab7a513" x1="63.19" y1="163.3" x2="63.24" y2="121"/><line class="ceb6e554-89a3-45ba-bf72-1862bab7a513" x1="67.77" y1="168.42" x2="67.9" y2="126.04"/><line class="ceb6e554-89a3-45ba-bf72-1862bab7a513" x1="96.61" y1="165.02" x2="96.62" y2="117.59"/><line class="ceb6e554-89a3-45ba-bf72-1862bab7a513" x1="91.82" y1="159.92" x2="91.94" y2="123.04"/><line class="ceb6e554-89a3-45ba-bf72-1862bab7a513" x1="97.13" y1="117.47" x2="91.81" y2="117.41"/><line class="ceb6e554-89a3-45ba-bf72-1862bab7a513" x1="68.08" y1="120.55" x2="62.76" y2="120.49"/><path class="ceb6e554-89a3-45ba-bf72-1862bab7a513" d="M92.07,117.34A32.91,32.91,0,0,1,68,120.53"/><path class="ceb6e554-89a3-45ba-bf72-1862bab7a513" d="M68.26,126.54a39.7,39.7,0,0,0,23.43-3.06"/><ellipse class="ceb6e554-89a3-45ba-bf72-1862bab7a513" cx="8.9" cy="110.94" rx="8.46" ry="5.98" transform="translate(-18.04 2.95) rotate(-9.42)"/><line class="35668403-130b-4525-b71a-5a6314108f55" x1="14.69" y1="110.23" x2="14.69" y2="63.23"/><ellipse class="ceb6e554-89a3-45ba-bf72-1862bab7a513" cx="37.96" cy="107.43" rx="8.46" ry="5.98" transform="translate(-17.07 7.66) rotate(-9.42)"/><line class="35668403-130b-4525-b71a-5a6314108f55" x1="43.69" y1="107.23" x2="43.75" y2="59.79"/><path class="5f5bf31c-bab8-457a-be01-004f4ceb1d12" d="M16.52,65.58a33.18,33.18,0,0,0,26.08-3.7"/><line class="ceb6e554-89a3-45ba-bf72-1862bab7a513" x1="12.63" y1="105.53" x2="12.68" y2="63.23"/><line class="ceb6e554-89a3-45ba-bf72-1862bab7a513" x1="17.21" y1="110.64" x2="17.34" y2="68.27"/><line class="ceb6e554-89a3-45ba-bf72-1862bab7a513" x1="46.05" y1="107.25" x2="46.06" y2="59.81"/><line class="ceb6e554-89a3-45ba-bf72-1862bab7a513" x1="41.26" y1="102.15" x2="41.37" y2="65.27"/><line class="ceb6e554-89a3-45ba-bf72-1862bab7a513" x1="46.57" y1="59.69" x2="41.25" y2="59.63"/><line class="ceb6e554-89a3-45ba-bf72-1862bab7a513" x1="17.52" y1="62.77" x2="12.2" y2="62.71"/><path class="ceb6e554-89a3-45ba-bf72-1862bab7a513" d="M41.5,59.57a32.91,32.91,0,0,1-24.1,3.19"/><path class="ceb6e554-89a3-45ba-bf72-1862bab7a513" d="M17.7,68.77a39.7,39.7,0,0,0,23.43-3.06"/><ellipse class="ceb6e554-89a3-45ba-bf72-1862bab7a513" cx="124.24" cy="228.91" rx="8.46" ry="5.98" transform="translate(-35.79 23.42) rotate(-9.42)"/><line class="35668403-130b-4525-b71a-5a6314108f55" x1="130.02" y1="228.2" x2="130.02" y2="181.2"/><ellipse class="ceb6e554-89a3-45ba-bf72-1862bab7a513" cx="153.3" cy="225.4" rx="8.46" ry="5.98" transform="translate(-34.83 28.13) rotate(-9.42)"/><line class="35668403-130b-4525-b71a-5a6314108f55" x1="159.02" y1="225.2" x2="159.09" y2="177.76"/><path class="5f5bf31c-bab8-457a-be01-004f4ceb1d12" d="M131.86,183.54a33.18,33.18,0,0,0,26.08-3.7"/><line class="ceb6e554-89a3-45ba-bf72-1862bab7a513" x1="127.96" y1="223.49" x2="128.01" y2="181.19"/><line class="ceb6e554-89a3-45ba-bf72-1862bab7a513" x1="132.55" y1="228.61" x2="132.67" y2="186.23"/><line class="ceb6e554-89a3-45ba-bf72-1862bab7a513" x1="161.38" y1="225.21" x2="161.4" y2="177.77"/><line class="ceb6e554-89a3-45ba-bf72-1862bab7a513" x1="156.59" y1="220.11" x2="156.71" y2="183.23"/><line class="ceb6e554-89a3-45ba-bf72-1862bab7a513" x1="161.91" y1="177.66" x2="156.59" y2="177.59"/><line class="ceb6e554-89a3-45ba-bf72-1862bab7a513" x1="132.85" y1="180.74" x2="127.53" y2="180.68"/><path class="ceb6e554-89a3-45ba-bf72-1862bab7a513" d="M156.84,177.53a32.91,32.91,0,0,1-24.1,3.19"/><path class="ceb6e554-89a3-45ba-bf72-1862bab7a513" d="M133,186.73a39.7,39.7,0,0,0,23.43-3.06"/><ellipse class="ceb6e554-89a3-45ba-bf72-1862bab7a513" cx="61" cy="289.27" rx="8.46" ry="5.98" transform="translate(-46.52 13.89) rotate(-9.42)"/><line class="35668403-130b-4525-b71a-5a6314108f55" x1="66.79" y1="288.56" x2="66.79" y2="241.56"/><ellipse class="ceb6e554-89a3-45ba-bf72-1862bab7a513" cx="90.07" cy="285.75" rx="8.46" ry="5.98" transform="translate(-45.56 18.6) rotate(-9.42)"/><line class="35668403-130b-4525-b71a-5a6314108f55" x1="95.79" y1="285.56" x2="95.86" y2="238.11"/><path class="5f5bf31c-bab8-457a-be01-004f4ceb1d12" d="M68.62,243.9a33.18,33.18,0,0,0,26.08-3.7"/><line class="ceb6e554-89a3-45ba-bf72-1862bab7a513" x1="64.73" y1="283.85" x2="64.78" y2="241.55"/><line class="ceb6e554-89a3-45ba-bf72-1862bab7a513" x1="69.31" y1="288.97" x2="69.44" y2="246.59"/><line class="ceb6e554-89a3-45ba-bf72-1862bab7a513" x1="98.38" y1="285.73" x2="98.38" y2="237.51"/><line class="ceb6e554-89a3-45ba-bf72-1862bab7a513" x1="93.43" y1="280.44" x2="93.48" y2="243.59"/><line class="ceb6e554-89a3-45ba-bf72-1862bab7a513" x1="98.67" y1="238.01" x2="93.36" y2="237.95"/><line class="ceb6e554-89a3-45ba-bf72-1862bab7a513" x1="69.62" y1="241.1" x2="64.3" y2="241.04"/><path class="ceb6e554-89a3-45ba-bf72-1862bab7a513" d="M93.61,237.89a32.91,32.91,0,0,1-24.1,3.19"/><path class="ceb6e554-89a3-45ba-bf72-1862bab7a513" d="M69.8,247.09A39.7,39.7,0,0,0,93.23,244"/></g><g id="456ab513-fc33-4722-864d-d23801c66d12" data-name="expressBT"><rect class="a3a82240-e0b0-488f-8da4-e7838f88fb5b" x="212.94" y="129.43" width="468.87" height="179" rx="12.49" ry="12.49"/><line class="70fa943d-a576-4578-86d3-15dcedfa6312" x1="444.74" y1="154.84" x2="444.74" y2="12"/><circle class="a3a82240-e0b0-488f-8da4-e7838f88fb5b" cx="444.74" cy="12.63" r="12.63"/><ellipse cx="265.41" cy="207.65" rx="14.93" ry="1.29"/><path d="M266.55,230.15c6.1.28,45.12,2.55,49.13,18.67,1.4,5.62-.84,15.42-2.22,21.46-.78,3.42-7,9.75-12,11.2-14.15,4.07-61.16,12.24-76-10.27-5.91-9-6.68-22.8-.51-31.32C233.06,228.74,249.77,229.39,266.55,230.15Z"/><ellipse cx="332.11" cy="207.64" rx="14.93" ry="1.29"/></g></g></svg>