<svg xmlns="http://www.w3.org/2000/svg" viewBox="0 0 626.78 416.92"><defs><style>.cls-1{fill:#ccc;}.cls-2{fill:#f2f2f2;}.cls-3{fill:#282828;}.cls-4{fill:#9b9b9b;}.cls-5{fill:#5b5b5b;}.cls-6{fill:gray;}.cls-7{fill:#4d4d4d;}.cls-8{fill:#34880c;}.cls-9{fill:#ff931e;}.cls-10{fill:#43b7ff;}.cls-11,.cls-12{font-size:14.66px;}.cls-11,.cls-12,.cls-15{fill:#fff;font-family:Roboto-Medium, Roboto;}.cls-12{letter-spacing:-0.01em;}.cls-13{letter-spacing:0em;}.cls-14{letter-spacing:-0.01em;}.cls-15{font-size:16px;}.cls-16{letter-spacing:0.02em;}</style></defs><title>expressYourselfCode_2</title><g id="Layer_2" data-name="Layer 2"><g id="expressYourselfCode"><rect class="cls-1" width="626.78" height="416.92"/><rect class="cls-2" y="25.18" width="626.78" height="391.74"/><circle class="cls-3" cx="10.31" cy="12.99" r="3.31"/><circle class="cls-4" cx="28.99" cy="12.99" r="3.31"/><circle class="cls-5" cx="20.03" cy="13.03" r="3.31"/><rect class="cls-6" x="607.2" y="6.13" width="11.19" height="2.8" rx="1.19" ry="1.19"/><rect class="cls-6" x="607.2" y="10.6" width="11.19" height="2.8" rx="1.19" ry="1.19"/><rect class="cls-6" x="607.2" y="15.07" width="11.19" height="2.8" rx="1.19" ry="1.19"/><rect class="cls-7" x="11.19" y="67.15" width="604.39" height="33.58"/><rect class="cls-7" x="268.62" y="41.97" width="81.15" height="11.19"/><path class="cls-8" d="M393.6,267.45a36.94,36.94,0,0,1-36.94,36.94H108.93A36.94,36.94,0,0,1,72,267.45h0a36.94,36.94,0,0,1,36.94-36.94H356.66a36.94,36.94,0,0,1,36.94,36.94Z"/><path class="cls-9" d="M486.32,278.32a18.83,18.83,0,0,1-18.83,18.83H116.9a18.83,18.83,0,0,1-18.83-18.83h0a18.83,18.83,0,0,1,18.83-18.83H467.49a18.83,18.83,0,0,1,18.83,18.83Z"/><polygon class="cls-9" points="121.62 300.86 118.47 294.25 124.76 294.25 121.62 300.86"/><polygon class="cls-8" points="121.62 275.26 112.22 255.14 131.02 255.14 121.62 275.26"/><rect class="cls-10" x="233.21" y="265.4" width="69.8" height="25.26"/><path class="cls-10" d="M233.36,282.5l-5.69,3.92a3.67,3.67,0,0,1-3.67-3.67v-8.07a3.67,3.67,0,0,1,3.67-3.67l5.69,3.17Z"/><text class="cls-11" transform="translate(241.01 283.31)">“Chant”</text><text class="cls-12" transform="translate(308.32 281.85)">t<tspan class="cls-13" x="4.66" y="0">o</tspan></text><rect class="cls-10" x="337.9" y="264.71" width="81.73" height="25.26"/><path class="cls-10" d="M338.05,281.81l-5.69,3.92a3.67,3.67,0,0,1-3.67-3.67V274a3.67,3.67,0,0,1,3.67-3.67l5.69,3.17Z"/><text class="cls-11" transform="translate(349.61 281.95)">“Ralphi<tspan class="cls-14" x="46.62" y="0">e</tspan><tspan x="54.38" y="0">”</tspan></text><text class="cls-15" transform="translate(177.97 250.39)">Execute on Sta<tspan class="cls-16" x="106.46" y="0">r</tspan><tspan x="112.48" y="0">t</tspan></text><text class="cls-15" transform="translate(154.69 282.27)">Play</text></g></g></svg>