<svg id="4b18da44-7766-4e25-9ff7-2d6579b04a9f" data-name="Layer 1" xmlns="http://www.w3.org/2000/svg" viewBox="0 0 1920 1280"><defs><style>.e5a92648-0ca1-4015-8c67-f662dfc7b0b4{fill:#43b7ff;}.b0ff67f5-8209-4079-b5cb-68c76dc156f0{fill:#34880c;}.\36 86df2fa-79c4-4884-986b-00d4aa144cde,.da991339-78c3-4b83-8ac4-7cea22d79cd7{fill:none;}.c7d6c851-13fa-4c62-b252-0e773f6e57ee{fill:#f7931e;}.\36 86df2fa-79c4-4884-986b-00d4aa144cde{stroke:#f7931e;stroke-linecap:round;stroke-miterlimit:10;stroke-width:36px;}</style></defs><title>interBG</title><rect class="e5a92648-0ca1-4015-8c67-f662dfc7b0b4" x="965.78" y="187.3" width="951.91" height="1090.75"/><rect class="b0ff67f5-8209-4079-b5cb-68c76dc156f0" x="-2.09" y="187.17" width="967.74" height="1093.33"/><path class="da991339-78c3-4b83-8ac4-7cea22d79cd7" d="M5.54,427A169,169,0,0,0,174.6,596V257.92A169,169,0,0,0,5.54,427Z"/><path class="da991339-78c3-4b83-8ac4-7cea22d79cd7" d="M343.65,427A169,169,0,0,0,174.6,257.92V596A169,169,0,0,0,343.65,427Z"/><path class="e5a92648-0ca1-4015-8c67-f662dfc7b0b4" d="M425,508.86V339.25H329.35a351.71,351.71,0,0,0-36.18-86.84l67.34-67.15L241,65.82,173.29,133.2A329,329,0,0,0,85.75,97.07V1.89H1.88V255.48a169.06,169.06,0,0,1,0,338.12V848.09H85.75V752a328.83,328.83,0,0,0,87.54-36.18l67.51,67.34L360.42,663.62l-67.3-67.45a327.55,327.55,0,0,0,36.22-87.31Z"/><path class="b0ff67f5-8209-4079-b5cb-68c76dc156f0" d="M1753.41,422.51a169,169,0,0,1,169.06-169.06V-.13H1838.6V95a328.74,328.74,0,0,0-87.55,36.19l-67.51-67.35L1563.92,183.43l67.3,67A352.12,352.12,0,0,0,1595,337.23h-95.63V506.84H1595a327.35,327.35,0,0,0,36.18,87.31l-67.34,67.4,119.54,119.58,67.67-67.33A329.41,329.41,0,0,0,1838.6,750v96.08h83.87V591.57A169,169,0,0,1,1753.41,422.51Z"/><path class="c7d6c851-13fa-4c62-b252-0e773f6e57ee" d="M1122,706.54c10.5,55.33-53.53,110.7-143,123.68s-170.53-21.35-181-76.68,53.53-110.7,143-123.68S1111.52,651.22,1122,706.54Z"/><line class="686df2fa-79c4-4884-986b-00d4aa144cde" x1="1102.51" y1="719.9" x2="1102.51" y2="315.44"/></svg>