<svg xmlns="http://www.w3.org/2000/svg" viewBox="0 0 140.35 270.57"><defs><style>.bc72fbff-7174-407f-913a-222b15608f82{fill:#ff931e;}.ac9bc4a9-8cee-44fd-a16c-f75f55ccae03{fill:#0aac32;}.a627f3b3-a6c1-4b56-827e-a561f1fd8fdd{fill:#fff;}.\31 b2b6823-6c6d-4c13-ba67-f251529f09f5,.\31 e8c629f-9990-4de1-827d-2b6c2254835c,.\38 114863b-436e-4165-b29e-0bf783c37768,.a331434f-31d5-4e38-bd21-48b6afb95891{fill:none;stroke:#fff;stroke-miterlimit:10;}.\31 e8c629f-9990-4de1-827d-2b6c2254835c{stroke-width:0.8px;}.a331434f-31d5-4e38-bd21-48b6afb95891{stroke-width:1.57px;}.\31 b2b6823-6c6d-4c13-ba67-f251529f09f5{stroke-width:1.18px;}.\38 114863b-436e-4165-b29e-0bf783c37768{stroke-width:0.5px;}</style></defs><title>modEdTool</title><g id="124baaf7-fb7f-48ef-8f4a-fd73097b0863" data-name="Layer 2"><g id="4f054378-d762-4748-8b22-4ed04c57d3a0" data-name="appsBT"><rect class="bc72fbff-7174-407f-913a-222b15608f82" width="138.66" height="270.57" rx="15" ry="15"/><rect class="ac9bc4a9-8cee-44fd-a16c-f75f55ccae03" x="7.38" y="21.32" width="124.27" height="220.53"/><rect class="a627f3b3-a6c1-4b56-827e-a561f1fd8fdd" x="50.71" y="7.32" width="36.69" height="6.9" rx="2.53" ry="2.53"/><rect class="bc72fbff-7174-407f-913a-222b15608f82" x="138.38" y="55.75" width="1.94" height="16.54" rx="0.81" ry="0.81"/><rect class="bc72fbff-7174-407f-913a-222b15608f82" x="138.41" y="76.66" width="1.94" height="16.54" rx="0.81" ry="0.81"/><rect class="a627f3b3-a6c1-4b56-827e-a561f1fd8fdd" x="47.1" y="249.12" width="44.89" height="12.53" rx="3.79" ry="3.79"/><polygon class="a627f3b3-a6c1-4b56-827e-a561f1fd8fdd" points="69.55 102.78 111.31 175.11 27.79 175.11 69.55 102.78"/><rect class="a627f3b3-a6c1-4b56-827e-a561f1fd8fdd" x="58.11" y="76.66" width="22.45" height="45.76"/><polygon class="ac9bc4a9-8cee-44fd-a16c-f75f55ccae03" points="99.21 171.58 83.01 142.58 55.09 142.58 38.89 171.58 99.21 171.58"/><circle class="1e8c629f-9990-4de1-827d-2b6c2254835c" cx="69.02" cy="152.06" r="4.1"/><circle class="1e8c629f-9990-4de1-827d-2b6c2254835c" cx="80.37" cy="157" r="2.98"/><circle class="1e8c629f-9990-4de1-827d-2b6c2254835c" cx="72.4" cy="162.83" r="2.85"/><circle class="1e8c629f-9990-4de1-827d-2b6c2254835c" cx="63.58" cy="166.57" r="1.87"/><circle class="1e8c629f-9990-4de1-827d-2b6c2254835c" cx="73.11" cy="50.7" r="4.1"/><circle class="a331434f-31d5-4e38-bd21-48b6afb95891" cx="72.4" cy="34.05" r="8"/><path class="a627f3b3-a6c1-4b56-827e-a561f1fd8fdd" d="M80.52,77l-22.27-.12-6.39-9.81H87.24Z"/><circle class="1b2b6823-6c6d-4c13-ba67-f251529f09f5" cx="57.62" cy="43.24" r="5.99"/><circle class="8114863b-436e-4165-b29e-0bf783c37768" cx="64.4" cy="55.46" r="2.56" transform="translate(-12.43 91.8) rotate(-66.05)"/></g></g></svg>