<svg xmlns="http://www.w3.org/2000/svg" viewBox="0 0 140.35 270.57"><defs><style>.d7ddfaba-c472-4a00-980c-4db9b4f14d02{fill:#43b7ff;}.\38 f1228e5-3344-4838-b709-f6ee6c9ce997{fill:#ff931e;}.\39 187e9f8-d8d9-484c-b6bc-e636b929cce0{fill:#fff;}.\30 9dfe68b-d107-4dcb-a9ff-418c47a11a2c,.\34 3d1a59a-c862-4789-9953-4d3114932ae4,.\37 ed346ba-e640-45dc-b3b8-5bd3643e3366,.\38 102c9ac-ed72-47be-9eb1-456759b29e0b,.c258f968-2ea8-4fac-b9cf-6f7d2c495c4d,.d77dbc08-cf85-45a2-a6cb-e4beb3b7ddbc,.de624d79-66fc-4dc4-9ca9-30748c809379{fill:none;stroke:#fff;stroke-miterlimit:10;}.\30 9dfe68b-d107-4dcb-a9ff-418c47a11a2c{stroke-width:3.9px;}.d77dbc08-cf85-45a2-a6cb-e4beb3b7ddbc{stroke-width:1.95px;}.\38 102c9ac-ed72-47be-9eb1-456759b29e0b{stroke-width:3.37px;}.de624d79-66fc-4dc4-9ca9-30748c809379{stroke-width:2.66px;}.\37 ed346ba-e640-45dc-b3b8-5bd3643e3366{stroke-width:3.08px;}.\34 3d1a59a-c862-4789-9953-4d3114932ae4{stroke-width:3.22px;}.c258f968-2ea8-4fac-b9cf-6f7d2c495c4d{stroke-width:4.85px;}</style></defs><title>modEdIOT</title><g id="d311bda6-bd58-4fe0-ba7e-1e8de356e4aa" data-name="Layer 2"><g id="e47ab36a-c40d-4037-86f7-3ee8224b5d54" data-name="appsBT"><rect class="d7ddfaba-c472-4a00-980c-4db9b4f14d02" width="138.66" height="270.57" rx="15" ry="15"/><rect class="8f1228e5-3344-4838-b709-f6ee6c9ce997" x="7.38" y="21.32" width="124.27" height="220.53"/><rect class="9187e9f8-d8d9-484c-b6bc-e636b929cce0" x="50.71" y="7.32" width="36.69" height="6.9" rx="2.53" ry="2.53"/><rect class="d7ddfaba-c472-4a00-980c-4db9b4f14d02" x="138.38" y="55.75" width="1.94" height="16.54" rx="0.81" ry="0.81"/><rect class="d7ddfaba-c472-4a00-980c-4db9b4f14d02" x="138.41" y="76.66" width="1.94" height="16.54" rx="0.81" ry="0.81"/><rect class="9187e9f8-d8d9-484c-b6bc-e636b929cce0" x="47.1" y="249.12" width="44.89" height="12.53" rx="3.79" ry="3.79"/><circle class="09dfe68b-d107-4dcb-a9ff-418c47a11a2c" cx="69.33" cy="118.24" r="20.39"/><circle class="d77dbc08-cf85-45a2-a6cb-e4beb3b7ddbc" cx="97.59" cy="177.73" r="10.2"/><circle class="8102c9ac-ed72-47be-9eb1-456759b29e0b" cx="99.46" cy="67.28" r="17.66"/><circle class="de624d79-66fc-4dc4-9ca9-30748c809379" cx="37.99" cy="163.81" r="13.93"/><circle class="7ed346ba-e640-45dc-b3b8-5bd3643e3366" cx="52.92" cy="49.59" r="16.13"/><line class="43d1a59a-c862-4789-9953-4d3114932ae4" x1="52.92" y1="65.72" x2="60.27" y2="99.97"/><line class="43d1a59a-c862-4789-9953-4d3114932ae4" x1="99.46" y1="84.93" x2="84.69" y2="104.83"/><line class="43d1a59a-c862-4789-9953-4d3114932ae4" x1="97.59" y1="167.54" x2="71.81" y2="138.47"/><line class="43d1a59a-c862-4789-9953-4d3114932ae4" x1="34.67" y1="150.28" x2="41.22" y2="60.7"/><line class="43d1a59a-c862-4789-9953-4d3114932ae4" x1="101.63" y1="168.37" x2="111.31" y2="80.36"/><circle class="c258f968-2ea8-4fac-b9cf-6f7d2c495c4d" cx="55.7" cy="211.15" r="25.38"/><line class="43d1a59a-c862-4789-9953-4d3114932ae4" x1="87.39" y1="177.73" x2="61.69" y2="186.49"/></g></g></svg>