<svg xmlns="http://www.w3.org/2000/svg" viewBox="0 0 488.79 488.79"><defs><style>.e54f6dda-4ed3-47f0-ba92-908bd6d0c049{fill:#34880c;}.\33 3e83adc-02f9-4c5d-8ced-e07107edafaa{fill:#0a9bcc;}.\39 c90b1b1-da60-4f98-bf93-3856f62710db,.a6a7ed5d-efa8-4341-8a3c-a3da6d3452ca,.e1235369-bdee-4db6-8893-239e2fb0d39c{fill:#fff;}.\30 6410e94-db80-461f-b9ab-0a3c0e54910b{fill:#ccc;}.f891db48-ee5f-4948-b3f9-787536ef452d{fill:#f2f2f2;}.\34 dbc3568-5371-44af-acb3-386ba763aad1{fill:red;}.be2dce63-5e83-4011-8797-90182d7e26f5{fill:#eaa700;}.\30 ba68e0c-890e-4bf4-97d7-abc032b73635{fill:#009245;}.\31 fae80be-12f4-49a6-b90e-55392b2545ea{fill:#f7931e;}.bd4ceb90-60aa-4ec6-b1c8-3c6d261e69ce{fill:#43b7ff;}.\30 b875d3f-0b44-4a1e-853a-0f5db4c9d418{fill:#39b54a;}.\35 03ecab4-a772-4e2c-ad92-a28ac6ac9347,.c05e778b-ed8b-4dc4-9b57-111313b6532c,.faa29c3f-fb40-473a-8e6d-c6116cca31e0{fill:none;stroke:#000;stroke-miterlimit:10;stroke-width:2.36px;}.\35 03ecab4-a772-4e2c-ad92-a28ac6ac9347{stroke-dasharray:7.35 7.35;}.faa29c3f-fb40-473a-8e6d-c6116cca31e0{stroke-dasharray:6.99 6.99;}.\35 f027d2d-e37c-4f6f-aa24-822f135f3e0b{fill:#ff931e;}.\39 c90b1b1-da60-4f98-bf93-3856f62710db{font-size:13.36px;font-family:Roboto-Medium, Roboto;}.ca52de26-53e5-49fd-a1df-1493cd719e4a{letter-spacing:-0.01em;}.\36 8a5c029-5e04-48be-8a93-555641784e05{letter-spacing:-0.01em;}.e1235369-bdee-4db6-8893-239e2fb0d39c{font-size:14.57px;font-family:Roboto-Bold, Roboto;font-weight:700;}.\34 bcbec6c-ec11-4ba2-afae-c8e06299577e{letter-spacing:0.02em;}</style></defs><title>programDesign</title><g id="359ec936-3653-4d4d-9fa6-be096f17c8d9" data-name="Layer 2"><g id="d7642c63-03c4-4bd8-9120-9c8f1fdde0db" data-name="connectCode"><circle class="e54f6dda-4ed3-47f0-ba92-908bd6d0c049" cx="244.39" cy="244.39" r="244.39"/></g><g id="6e0df045-a956-4844-a9d1-81d396e2b597" data-name="programDesignCode"><rect class="33e83adc-02f9-4c5d-8ced-e07107edafaa" x="69.3" y="104.78" width="175" height="122" rx="13.17" ry="13.17"/><rect class="a6a7ed5d-efa8-4341-8a3c-a3da6d3452ca" x="73.3" y="110.78" width="165" height="111" rx="9.51" ry="9.51"/><rect class="33e83adc-02f9-4c5d-8ced-e07107edafaa" x="63.3" y="233.78" width="187" height="7" rx="3.34" ry="3.34"/><rect class="a6a7ed5d-efa8-4341-8a3c-a3da6d3452ca" x="134.3" y="229.78" width="46" height="7" rx="3.27" ry="3.27"/><rect class="06410e94-db80-461f-b9ab-0a3c0e54910b" x="87.3" y="117.78" width="137" height="101"/><rect class="f891db48-ee5f-4948-b3f9-787536ef452d" x="87.3" y="123.78" width="137" height="95"/><ellipse class="4dbc3568-5371-44af-acb3-386ba763aad1" cx="89.87" cy="120.59" rx="0.72" ry="0.81"/><ellipse class="be2dce63-5e83-4011-8797-90182d7e26f5" cx="93.96" cy="120.59" rx="0.72" ry="0.81"/><ellipse class="0ba68e0c-890e-4bf4-97d7-abc032b73635" cx="92.11" cy="120.59" rx="0.72" ry="0.81"/><rect class="e54f6dda-4ed3-47f0-ba92-908bd6d0c049" x="93.1" y="132.96" width="46" height="11" rx="5.39" ry="5.39"/><rect class="1fae80be-12f4-49a6-b90e-55392b2545ea" x="94.1" y="134.96" width="56" height="6" rx="2.77" ry="2.77"/><polygon class="e54f6dda-4ed3-47f0-ba92-908bd6d0c049" points="99.44 135.92 98.6 134.48 100.27 134.48 99.44 135.92"/><polygon class="1fae80be-12f4-49a6-b90e-55392b2545ea" points="99.53 141.55 99.08 140.76 99.99 140.76 99.53 141.55"/><path class="33e83adc-02f9-4c5d-8ced-e07107edafaa" d="M169.3,181.28a1.5,1.5,0,0,1-1.5,1.5h-53a1.5,1.5,0,0,1-1.5-1.5h0a1.5,1.5,0,0,1,1.5-1.5h53a1.5,1.5,0,0,1,1.5,1.5Z"/><polygon class="bd4ceb90-60aa-4ec6-b1c8-3c6d261e69ce" points="116.41 182.58 115.95 182.14 116.86 182.14 116.41 182.58"/><path class="33e83adc-02f9-4c5d-8ced-e07107edafaa" d="M186.3,200.28a1.5,1.5,0,0,1-1.5,1.5h-53a1.5,1.5,0,0,1-1.5-1.5h0a1.5,1.5,0,0,1,1.5-1.5h53a1.5,1.5,0,0,1,1.5,1.5Z"/><polygon class="0b875d3f-0b44-4a1e-853a-0f5db4c9d418" points="133.43 199.91 132.6 198.47 134.26 198.47 133.43 199.91"/><polygon class="bd4ceb90-60aa-4ec6-b1c8-3c6d261e69ce" points="133.28 201.98 132.83 201.54 133.73 201.54 133.28 201.98"/><rect class="e54f6dda-4ed3-47f0-ba92-908bd6d0c049" x="165.74" y="128.64" width="46" height="40" rx="10.42" ry="10.42"/><rect class="33e83adc-02f9-4c5d-8ced-e07107edafaa" x="168.74" y="132.64" width="43" height="2" rx="0.84" ry="0.84"/><polygon class="e54f6dda-4ed3-47f0-ba92-908bd6d0c049" points="172.33 133.97 171.5 132.53 173.16 132.53 172.33 133.97"/><polygon class="33e83adc-02f9-4c5d-8ced-e07107edafaa" points="172.33 135.26 171.88 134.47 172.79 134.47 172.33 135.26"/><rect class="33e83adc-02f9-4c5d-8ced-e07107edafaa" x="168.74" y="137.64" width="43" height="2" rx="0.84" ry="0.84"/><polygon class="33e83adc-02f9-4c5d-8ced-e07107edafaa" points="172.33 140.32 171.88 139.53 172.79 139.53 172.33 140.32"/><rect class="33e83adc-02f9-4c5d-8ced-e07107edafaa" x="168.74" y="141.64" width="43" height="2" rx="0.84" ry="0.84"/><rect class="33e83adc-02f9-4c5d-8ced-e07107edafaa" x="168.74" y="143.64" width="43" height="2" rx="0.84" ry="0.84"/><polygon class="33e83adc-02f9-4c5d-8ced-e07107edafaa" points="172.33 146.16 171.88 145.38 172.79 145.38 172.33 146.16"/><rect class="33e83adc-02f9-4c5d-8ced-e07107edafaa" x="168.74" y="146.64" width="43" height="2" rx="0.84" ry="0.84"/><rect class="33e83adc-02f9-4c5d-8ced-e07107edafaa" x="168.74" y="148.64" width="43" height="2" rx="0.84" ry="0.84"/><polygon class="33e83adc-02f9-4c5d-8ced-e07107edafaa" points="172.33 151.16 171.88 150.38 172.79 150.38 172.33 151.16"/><rect class="33e83adc-02f9-4c5d-8ced-e07107edafaa" x="168.74" y="151.64" width="43" height="2" rx="0.84" ry="0.84"/><rect class="33e83adc-02f9-4c5d-8ced-e07107edafaa" x="168.74" y="153.64" width="43" height="2" rx="0.84" ry="0.84"/><polygon class="33e83adc-02f9-4c5d-8ced-e07107edafaa" points="172.33 156.35 171.88 155.56 172.79 155.56 172.33 156.35"/><rect class="33e83adc-02f9-4c5d-8ced-e07107edafaa" x="168.74" y="156.64" width="43" height="2" rx="0.84" ry="0.84"/><polygon class="33e83adc-02f9-4c5d-8ced-e07107edafaa" points="172.33 159.22 171.88 158.44 172.79 158.44 172.33 159.22"/><rect class="e54f6dda-4ed3-47f0-ba92-908bd6d0c049" x="127.66" y="185.04" width="46" height="11" rx="5.39" ry="5.39"/><rect class="1fae80be-12f4-49a6-b90e-55392b2545ea" x="129.66" y="187.04" width="56" height="6" rx="2.77" ry="2.77"/><polygon class="e54f6dda-4ed3-47f0-ba92-908bd6d0c049" points="133.8 188.17 132.97 186.73 134.63 186.73 133.8 188.17"/><polygon class="1fae80be-12f4-49a6-b90e-55392b2545ea" points="133.9 193.82 133.44 193.04 134.35 193.04 133.9 193.82"/><line class="c05e778b-ed8b-4dc4-9b57-111313b6532c" x1="126.89" y1="206.93" x2="125.45" y2="210.17"/><line class="503ecab4-a772-4e2c-ad92-a28ac6ac9347" x1="122.45" y1="216.89" x2="88.05" y2="294.15"/><line class="c05e778b-ed8b-4dc4-9b57-111313b6532c" x1="86.55" y1="297.51" x2="85.11" y2="300.75"/><line class="c05e778b-ed8b-4dc4-9b57-111313b6532c" x1="190.47" y1="206.93" x2="193.38" y2="208.94"/><line class="faa29c3f-fb40-473a-8e6d-c6116cca31e0" x1="199.14" y1="212.91" x2="334.42" y2="306.12"/><line class="c05e778b-ed8b-4dc4-9b57-111313b6532c" x1="337.3" y1="308.1" x2="340.21" y2="310.11"/><path class="bd4ceb90-60aa-4ec6-b1c8-3c6d261e69ce" d="M350.45,343.71a33.64,33.64,0,0,1-33.64,33.64H91.19a33.64,33.64,0,0,1-33.64-33.64h0a33.64,33.64,0,0,1,33.64-33.64H316.81a33.64,33.64,0,0,1,33.64,33.64Z"/><path class="5f027d2d-e37c-4f6f-aa24-822f135f3e0b" d="M434.89,353.61a17.15,17.15,0,0,1-17.15,17.15H98.45A17.15,17.15,0,0,1,81.3,353.61h0a17.15,17.15,0,0,1,17.15-17.15H417.74a17.15,17.15,0,0,1,17.15,17.15Z"/><polygon class="5f027d2d-e37c-4f6f-aa24-822f135f3e0b" points="102.75 374.14 99.88 368.12 105.61 368.12 102.75 374.14"/><polygon class="bd4ceb90-60aa-4ec6-b1c8-3c6d261e69ce" points="102.75 350.83 94.19 332.5 111.31 332.5 102.75 350.83"/><rect class="e54f6dda-4ed3-47f0-ba92-908bd6d0c049" x="234.04" y="341.85" width="63.57" height="23"/><path class="e54f6dda-4ed3-47f0-ba92-908bd6d0c049" d="M234.17,357.42,229,361a3.34,3.34,0,0,1-3.34-3.34v-7.35A3.34,3.34,0,0,1,229,347l5.19,2.89Z"/><text class="9c90b1b1-da60-4f98-bf93-3856f62710db" transform="translate(241.14 358.16)">“Chant”</text><text class="9c90b1b1-da60-4f98-bf93-3856f62710db" transform="translate(302.45 356.83)"><tspan class="ca52de26-53e5-49fd-a1df-1493cd719e4a">t</tspan><tspan x="4.25" y="0">o</tspan></text><rect class="e54f6dda-4ed3-47f0-ba92-908bd6d0c049" x="329.38" y="341.22" width="74.44" height="23"/><path class="e54f6dda-4ed3-47f0-ba92-908bd6d0c049" d="M329.52,356.79l-5.19,3.57A3.34,3.34,0,0,1,321,357v-7.35a3.34,3.34,0,0,1,3.34-3.34l5.19,2.89Z"/><text class="9c90b1b1-da60-4f98-bf93-3856f62710db" transform="translate(340.05 356.92)">“Ralphi<tspan class="68a5c029-5e04-48be-8a93-555641784e05" x="42.45" y="0">e</tspan><tspan x="49.53" y="0">”</tspan></text><text class="e1235369-bdee-4db6-8893-239e2fb0d39c" transform="translate(153.71 328.18)">Execute on Sta<tspan class="4bcbec6c-ec11-4ba2-afae-c8e06299577e" x="97.39" y="0">r</tspan><tspan x="103.06" y="0">t</tspan></text><text class="e1235369-bdee-4db6-8893-239e2fb0d39c" transform="translate(118.69 358.76)">Send message</text></g></g></svg>